HIERARCHY
ROOT Hips
{
	OFFSET 0.000000 0.000000 0.000000
	CHANNELS 6 Xposition Yposition Zposition Xrotation Yrotation Zrotation
	JOINT LeftUpLeg_virtual
	{
		OFFSET 0.000000 0.000000 0.000000
		CHANNELS 3 Xrotation Yrotation Zrotation
		JOINT LeftUpLeg
		{
			OFFSET 13.026900 -6.336304 -1.092800
			CHANNELS 3 Xrotation Yrotation Zrotation
			JOINT LeftLeg
			{
				OFFSET 0.524474 -46.096886 9.782700
				CHANNELS 3 Xrotation Yrotation Zrotation
				JOINT LeftFoot
				{
					OFFSET -0.524474 -53.427422 -12.948200
					CHANNELS 3 Xrotation Yrotation Zrotation
					JOINT LeftToeBase
					{
						OFFSET 0.192200 -14.009700 16.364100
						CHANNELS 3 Xrotation Yrotation Zrotation
						JOINT LeftToe_End
						{
							OFFSET -1.784700 -0.561700 9.474800
							CHANNELS 3 Xrotation Yrotation Zrotation
							End Site
							{
								OFFSET 0 0 0
							}
						}
					}
				}
			}
		}
	}
	JOINT RightUpLeg_virtual
	{
		OFFSET 0.000000 0.000000 0.000000
		CHANNELS 3 Xrotation Yrotation Zrotation
		JOINT RightUpLeg
		{
			OFFSET -12.883000 -6.336304 -1.092800
			CHANNELS 3 Xrotation Yrotation Zrotation
			JOINT RightLeg
			{
				OFFSET -0.524587 -46.096825 9.782800
				CHANNELS 3 Xrotation Yrotation Zrotation
				JOINT RightFoot
				{
					OFFSET 0.524587 -53.427383 -12.948300
					CHANNELS 3 Xrotation Yrotation Zrotation
					JOINT RightToeBase
					{
						OFFSET -0.192200 -14.009700 16.364100
						CHANNELS 3 Xrotation Yrotation Zrotation
						JOINT RightToe_End
						{
							OFFSET 1.784700 -0.561700 9.474800
							CHANNELS 3 Xrotation Yrotation Zrotation
							End Site
							{
								OFFSET 0 0 0
							}
						}
					}
				}
			}
		}
	}
	JOINT Spine_virtual
	{
		OFFSET 0.000000 0.000000 0.000000
		CHANNELS 3 Xrotation Yrotation Zrotation
		JOINT Spine
		{
			OFFSET 0.072000 7.257294 -0.789700
			CHANNELS 3 Xrotation Yrotation Zrotation
			JOINT Spine1
			{
				OFFSET 0.000000 12.508769 -0.658067
				CHANNELS 3 Xrotation Yrotation Zrotation
				JOINT Spine1_split
				{
					OFFSET 0.000000 12.508769 -0.658067
					CHANNELS 3 Xrotation Yrotation Zrotation
					JOINT Spine2
					{
						OFFSET 0.000000 12.508769 -0.658067
						CHANNELS 3 Xrotation Yrotation Zrotation
						JOINT Neck_virtual
						{
							OFFSET 0.000000 0.000000 0.000000
							CHANNELS 3 Xrotation Yrotation Zrotation
							JOINT Neck
							{
								OFFSET 0.000000 14.033295 7.520400
								CHANNELS 3 Xrotation Yrotation Zrotation
								JOINT Head
								{
									OFFSET 0.000000 8.198502 5.703100
									CHANNELS 3 Xrotation Yrotation Zrotation
									JOINT HeadTop_End
									{
										OFFSET 0.000000 17.760803 13.332701
										CHANNELS 3 Xrotation Yrotation Zrotation
										End Site
										{
											OFFSET 0 0 0
										}
									}
								}
							}
						}
						JOINT LeftShoulder_virtual
						{
							OFFSET 0.000000 0.000000 0.000000
							CHANNELS 3 Xrotation Yrotation Zrotation
							JOINT LeftShoulder
							{
								OFFSET 6.292450 5.785301 -0.669000
								CHANNELS 3 Xrotation Yrotation Zrotation
								JOINT LeftShoulder_split
								{
									OFFSET 6.292450 5.785301 -0.669000
									CHANNELS 3 Xrotation Yrotation Zrotation
									JOINT LeftArm
									{
										OFFSET 13.907140 -6.093903 1.965100
										CHANNELS 3 Xrotation Yrotation Zrotation
										JOINT LeftForeArm
										{
											OFFSET 34.140198 0.000000 0.000000
											CHANNELS 3 Xrotation Yrotation Zrotation
											JOINT LeftHand
											{
												OFFSET 40.960209 0.000000 0.000000
												CHANNELS 3 Xrotation Yrotation Zrotation
												End Site
												{
													OFFSET 0 0 0
												}
											}
										}
									}
								}
							}
						}
						JOINT RightShoulder_virtual
						{
							OFFSET 0.000000 0.000000 0.000000
							CHANNELS 3 Xrotation Yrotation Zrotation
							JOINT RightShoulder
							{
								OFFSET -6.292450 5.785301 -0.669000
								CHANNELS 3 Xrotation Yrotation Zrotation
								JOINT RightShoulder_split
								{
									OFFSET -6.292450 5.785301 -0.669000
									CHANNELS 3 Xrotation Yrotation Zrotation
									JOINT RightArm
									{
										OFFSET -13.907140 -6.093903 1.965100
										CHANNELS 3 Xrotation Yrotation Zrotation
										JOINT RightForeArm
										{
											OFFSET -34.140198 0.000000 0.000000
											CHANNELS 3 Xrotation Yrotation Zrotation
											JOINT RightHand
											{
												OFFSET -40.960209 0.000000 0.000000
												CHANNELS 3 Xrotation Yrotation Zrotation
												End Site
												{
													OFFSET 0 0 0
												}
											}
										}
									}
								}
							}
						}
					}
				}
			}
		}
	}
}
MOTION
Frames: 10
Frame Time: 0.03333333
-5.013216 97.568336 96.059769 0.000000 0.000000 0.000000 25.986723 16.532247 -4.384463 -8.890673 6.984435 7.095851 24.582715 10.865212 1.751240 -18.382829 12.254735 -29.945366 -15.622893 -6.008694 3.876461 0.000000 0.000000 0.000000 27.084255 16.003787 -4.419300 -71.770979 -7.044275 -6.104883 55.769710 -27.205181 -4.192602 2.962928 0.173293 -3.418982 -6.105662 8.664268 6.255664 0.000000 0.000000 0.000000 29.417768 9.525410 -3.347323 5.371640 -1.461516 -0.700323 8.646716 -0.336141 3.797314 1.081964 -0.367598 1.281105 0.000000 0.000000 0.000000 10.317346 0.158548 3.315011 -7.011826 -0.460629 -0.049066 -6.709422 6.244372 2.958099 0.000000 0.000000 0.000000 11.747335 -0.451113 3.420407 2.374507 -19.763726 3.313676 1.550595 -1.038115 -3.503107 -40.344049 -21.840816 -41.329304 108.712931 -63.603767 120.602276 0.000000 0.000000 0.000000 10.492056 0.291934 4.072204 3.222939 10.908314 -1.719760 2.750705 5.614653 0.601257 -46.248403 14.030015 35.353626 120.085640 46.742324 -141.526342 0.000000 0.000000 0.000000 
-5.089143 97.099136 96.640312 0.000000 0.000000 0.000000 26.135686 16.481057 -4.365762 -9.213591 7.104620 7.277762 25.116064 10.851390 1.832299 -18.259392 12.152866 -30.585563 -16.443069 -6.156043 3.915286 0.000000 0.000000 0.000000 27.274284 15.979849 -4.409449 -72.621016 -7.291113 -6.216019 56.601778 -27.370603 -4.057054 3.192716 0.014644 -3.464847 -6.722512 8.463620 6.518491 0.000000 0.000000 0.000000 29.592239 9.460894 -3.322940 5.429315 -1.384068 -0.689117 8.179012 -0.307464 3.782350 1.088781 -0.378989 1.258162 0.000000 0.000000 0.000000 9.842840 0.183929 3.308574 -7.250340 -0.428150 -0.168209 -6.727566 6.026846 2.975964 0.000000 0.000000 0.000000 11.263880 -0.415237 3.409128 2.503911 -19.835914 3.784018 1.564491 -0.996013 -3.456475 -40.812884 -21.977302 -41.226301 106.953010 -64.094939 118.917596 0.000000 0.000000 0.000000 10.016968 0.319784 4.050609 3.295385 10.716968 -2.124029 2.809637 5.664133 0.563909 -46.979991 14.074769 35.799378 119.608319 47.127247 -140.798995 0.000000 0.000000 0.000000 
-5.158401 96.665154 97.168602 0.000000 0.000000 0.000000 26.303101 16.415105 -4.367709 -9.598030 7.265092 7.493593 25.615733 10.833792 1.914166 -18.093969 12.005673 -31.226447 -17.243982 -6.315618 3.948134 0.000000 0.000000 0.000000 27.472103 15.922892 -4.414355 -73.435510 -7.556094 -6.373850 57.366629 -27.464810 -3.968149 3.370942 -0.039625 -3.382058 -7.283716 8.301149 6.727722 0.000000 0.000000 0.000000 29.771271 9.380577 -3.319700 5.519026 -1.312060 -0.677481 7.684670 -0.277498 3.775981 1.088005 -0.372785 1.242334 0.000000 0.000000 0.000000 9.335141 0.206430 3.306888 -7.480700 -0.375071 -0.307224 -6.741710 5.845949 2.994598 0.000000 0.000000 0.000000 10.749631 -0.382108 3.404038 2.622466 -19.910587 4.227510 1.587488 -0.959981 -3.393970 -41.425056 -22.175182 -41.203352 104.766578 -64.598754 116.774597 0.000000 0.000000 0.000000 9.511158 0.347251 4.036680 3.361224 10.515904 -2.551193 2.898038 5.720037 0.528506 -47.812782 14.058110 36.270722 118.993998 47.592485 -139.938459 0.000000 0.000000 0.000000 
-5.212949 96.253151 97.655029 0.000000 0.000000 0.000000 26.505985 16.338958 -4.412152 -10.023947 7.461521 7.757215 26.092547 10.821706 1.997881 -17.917140 11.828604 -31.835109 -18.022299 -6.486393 3.972561 0.000000 0.000000 0.000000 27.691206 15.845872 -4.455898 -74.168724 -7.846661 -6.519226 58.067249 -27.521380 -3.919738 3.339681 -0.013632 -3.324459 -7.675623 8.174241 6.912556 0.000000 0.000000 0.000000 29.965140 9.267759 -3.343009 5.624325 -1.243173 -0.660884 7.166205 -0.247768 3.771382 1.092276 -0.341760 1.237380 0.000000 0.000000 0.000000 8.792233 0.223920 3.301360 -7.691704 -0.306798 -0.453198 -6.773394 5.692619 3.026260 0.000000 0.000000 0.000000 10.204967 -0.355019 3.398059 2.731152 -19.985364 4.657565 1.608155 -0.925346 -3.334168 -42.148288 -22.451209 -41.246505 102.177629 -65.088178 114.194138 0.000000 0.000000 0.000000 8.970873 0.370634 4.022852 3.421898 10.312598 -2.990676 3.006824 5.763498 0.496372 -48.700878 13.929032 36.769565 118.258182 48.126421 -138.971619 0.000000 0.000000 0.000000 
-5.252841 95.845154 98.110214 0.000000 0.000000 0.000000 26.759115 16.245897 -4.500459 -10.465676 7.686879 8.070239 26.555989 10.823594 2.088946 -17.776957 11.637035 -32.383638 -18.795456 -6.668447 3.994117 0.000000 0.000000 0.000000 27.941146 15.753739 -4.539711 -74.817271 -8.155633 -6.627634 58.787527 -27.562651 -3.869088 3.097571 0.047456 -3.407520 -7.968330 8.061035 7.118105 0.000000 0.000000 0.000000 30.188897 9.132117 -3.391375 5.726678 -1.173824 -0.638079 6.628818 -0.220161 3.761957 1.094440 -0.317244 1.246174 0.000000 0.000000 0.000000 8.219625 0.236367 3.286638 -7.872819 -0.231584 -0.593905 -6.842262 5.549973 3.074593 0.000000 0.000000 0.000000 9.631723 -0.333588 3.386506 2.833388 -20.061930 5.087625 1.639912 -0.884256 -3.284272 -42.932097 -22.803036 -41.309571 99.288691 -65.544339 111.283651 0.000000 0.000000 0.000000 8.398380 0.388355 4.000970 3.477430 10.109297 -3.440361 3.129300 5.799247 0.458739 -49.596128 13.684088 37.292136 117.451673 48.699997 -137.956311 0.000000 0.000000 0.000000 
-5.276886 95.440575 98.562386 0.000000 0.000000 0.000000 27.071629 16.138072 -4.628396 -10.895819 7.918181 8.416256 27.013427 10.838921 2.192980 -17.700961 11.447493 -32.864691 -19.567198 -6.858352 4.009682 0.000000 0.000000 0.000000 28.225518 15.659711 -4.656939 -75.436168 -8.457165 -6.705223 59.577705 -27.570444 -3.803128 2.803764 0.114120 -3.579521 -8.371500 7.925711 7.370589 0.000000 0.000000 0.000000 30.444602 8.977360 -3.459236 5.806223 -1.104085 -0.613975 6.077306 -0.194127 3.743940 1.079859 -0.306653 1.256871 0.000000 0.000000 0.000000 7.627743 0.244851 3.259634 -8.017667 -0.161091 -0.724328 -6.960171 5.403074 3.137721 0.000000 0.000000 0.000000 9.035255 -0.316790 3.367464 2.930108 -20.141611 5.521701 1.660034 -0.832591 -3.250901 -43.719751 -23.206731 -41.335694 96.253853 -65.961473 108.204273 0.000000 0.000000 0.000000 7.797945 0.398163 3.967752 3.527632 9.916144 -3.889354 3.252616 5.814821 0.406906 -50.452043 13.351574 37.826639 116.632324 49.279818 -136.950142 0.000000 0.000000 0.000000 
-5.282836 95.027802 99.031097 0.000000 0.000000 0.000000 27.442990 16.019041 -4.779447 -11.313202 8.129817 8.783346 27.482110 10.840512 2.310582 -17.670937 11.259627 -33.328721 -20.347267 -7.050169 4.019228 0.000000 0.000000 0.000000 28.550599 15.571665 -4.796990 -76.096121 -8.707214 -6.757653 60.414669 -27.477405 -3.755393 2.585869 0.197236 -3.693956 -9.064836 7.734616 7.664399 0.000000 0.000000 0.000000 30.736080 8.809823 -3.536494 5.849300 -1.033478 -0.597964 5.518996 -0.171203 3.718267 1.051976 -0.312654 1.265215 0.000000 0.000000 0.000000 7.029299 0.252162 3.222914 -8.118213 -0.103874 -0.839711 -7.129465 5.240449 3.200612 0.000000 0.000000 0.000000 8.427089 -0.302111 3.343767 3.025073 -20.231533 5.955913 1.681568 -0.778109 -3.243951 -44.440831 -23.641407 -41.284276 93.213060 -66.342618 105.102015 0.000000 0.000000 0.000000 7.180766 0.402891 3.926776 3.571344 9.744170 -4.321517 3.360941 5.817517 0.344248 -51.225196 12.993574 38.352175 115.790749 49.853390 -135.944438 0.000000 0.000000 0.000000 
-5.270768 94.589203 99.523590 0.000000 0.000000 0.000000 27.864711 15.893184 -4.936272 -11.732207 8.298653 9.155768 27.977607 10.824595 2.438627 -17.656099 11.070791 -33.794717 -21.126701 -7.237087 4.015727 0.000000 0.000000 0.000000 28.932992 15.490936 -4.947369 -76.819602 -8.892809 -6.805316 61.301692 -27.260337 -3.733813 2.486239 0.288096 -3.695398 -10.062798 7.474071 7.975534 0.000000 0.000000 0.000000 31.061204 8.638054 -3.612296 5.851350 -0.962747 -0.596610 4.962504 -0.150530 3.689085 1.034482 -0.337848 1.270935 0.000000 0.000000 0.000000 6.434947 0.259174 3.181826 -8.168448 -0.068624 -0.937558 -7.342455 5.052407 3.239411 0.000000 0.000000 0.000000 7.816564 -0.289172 3.319055 3.119904 -20.340227 6.373908 1.696636 -0.749125 -3.242168 -45.046850 -24.086681 -41.139927 90.230774 -66.696094 102.047063 0.000000 0.000000 0.000000 6.559389 0.405723 3.884059 3.605056 9.605466 -4.707891 3.442555 5.827062 0.278575 -51.874645 12.671796 38.838836 114.878454 50.426317 -134.882043 0.000000 0.000000 0.000000 
-5.234573 94.118401 100.064240 0.000000 0.000000 0.000000 28.321077 15.746072 -5.081663 -12.160132 8.423389 9.514670 28.511540 10.795993 2.569290 -17.625296 10.891751 -34.266434 -21.888501 -7.411309 3.989270 0.000000 0.000000 0.000000 29.375462 15.410172 -5.098863 -77.606385 -9.029646 -6.855062 62.234655 -26.952319 -3.727405 2.449255 0.337352 -3.620764 -11.229591 7.156919 8.254410 0.000000 0.000000 0.000000 31.416626 8.458207 -3.677374 5.816470 -0.895901 -0.617650 4.414047 -0.130499 3.657427 1.017836 -0.380180 1.268746 0.000000 0.000000 0.000000 5.851550 0.267328 3.138706 -8.154972 -0.058316 -1.016152 -7.584783 4.846157 3.226651 0.000000 0.000000 0.000000 7.213777 -0.275618 3.292167 3.213069 -20.475490 6.751022 1.727044 -0.745785 -3.234264 -45.506716 -24.540579 -40.910190 87.325143 -67.011430 99.055419 0.000000 0.000000 0.000000 5.942888 0.410304 3.844132 3.628986 9.520461 -5.009011 3.503723 5.825082 0.208516 -52.380864 12.422053 39.248289 113.826817 51.008082 -133.689738 0.000000 0.000000 0.000000 
-5.180855 93.609612 100.628517 0.000000 0.000000 0.000000 28.810476 15.590933 -5.211109 -12.607296 8.517997 9.853651 29.065307 10.758118 2.698104 -17.567066 10.724832 -34.742355 -22.640569 -7.568593 3.938122 0.000000 0.000000 0.000000 29.865924 15.327262 -5.243230 -78.455589 -9.138905 -6.919194 63.224438 -26.587095 -3.709755 2.403692 0.325535 -3.543863 -12.352566 6.820218 8.459293 0.000000 0.000000 0.000000 31.808830 8.273813 -3.728623 5.754610 -0.834537 -0.659991 3.875565 -0.108972 3.622319 1.017605 -0.425138 1.282386 0.000000 0.000000 0.000000 5.279497 0.278523 3.093664 -8.070009 -0.068967 -1.071930 -7.841530 4.631902 3.140743 0.000000 0.000000 0.000000 6.620571 -0.260085 3.260948 3.305911 -20.647607 7.072700 1.761680 -0.781781 -3.213000 -45.816827 -24.999616 -40.607261 84.488620 -67.273750 96.122051 0.000000 0.000000 0.000000 5.337396 0.419978 3.806686 3.639979 9.485628 -5.206697 3.528545 5.826250 0.145426 -52.753656 12.275067 39.537069 112.633084 51.593681 -132.353644 0.000000 0.000000 0.000000 
